<svg width="24" height="24" viewBox="0 0 24 24" fill="none" xmlns="http://www.w3.org/2000/svg">
<path d="M12 5.90625C11.7413 5.90625 11.5312 6.11627 11.5312 6.375C11.5312 6.63373 11.7413 6.84375 12 6.84375C12.2587 6.84375 12.4688 6.63373 12.4688 6.375C12.4688 6.11627 12.2587 5.90625 12 5.90625Z" fill="#000"/>
<path d="M4.21875 14.3438C4.47748 14.3438 4.6875 14.1337 4.6875 13.875C4.6875 13.6163 4.47748 13.4062 4.21875 13.4062C3.96002 13.4062 3.75 13.6163 3.75 13.875C3.75 14.1337 3.96002 14.3438 4.21875 14.3438Z" fill="#000"/>
<path d="M15.75 1.21875C11.53 1.21875 8.06635 4.1283 7.79846 7.79315C3.77948 7.99475 0 10.8928 0 14.8125C0 16.4506 0.648193 18.0377 1.82812 19.2953C2.06158 20.2577 1.77814 21.2778 1.07483 21.9811C0.940796 22.1151 0.900696 22.3167 0.973206 22.4919C1.04572 22.667 1.21655 22.7812 1.40625 22.7812C2.7431 22.7812 4.03143 22.257 4.98871 21.3333C5.92126 21.6511 7.138 21.8438 8.25 21.8438C12.4695 21.8438 15.9327 18.9349 16.2014 15.2708C17.1828 15.2272 18.2036 15.046 19.0113 14.7708C19.9686 15.6945 21.2569 16.2188 22.5938 16.2188C22.7834 16.2188 22.9543 16.1045 23.0268 15.9294C23.0993 15.7542 23.0592 15.5526 22.9252 15.4186C22.2219 14.7153 21.9384 13.6952 22.1719 12.7328C23.3518 11.4752 24 9.88806 24 8.25C24 4.17719 19.9294 1.21875 15.75 1.21875ZM8.25 20.9062C7.14368 20.9062 5.883 20.6891 5.03851 20.3531C4.8576 20.2809 4.65088 20.3284 4.51923 20.4721C3.95325 21.0908 3.21735 21.5222 2.41553 21.7205C2.85736 20.874 2.97015 19.8761 2.70135 18.9305C2.68011 18.856 2.64075 18.7879 2.58673 18.7324C1.52325 17.6371 0.9375 16.2449 0.9375 14.8125C0.9375 11.5093 4.28613 8.71875 8.25 8.71875C11.993 8.71875 15.2812 11.3216 15.2812 14.8125C15.2812 18.1727 12.1271 20.9062 8.25 20.9062ZM21.4133 12.1699C21.3593 12.2256 21.3199 12.2937 21.2986 12.368C21.0298 13.3136 21.1426 14.3115 21.5845 15.158C20.7827 14.9599 20.0468 14.5283 19.4808 13.9096C19.3491 13.7661 19.1424 13.7184 18.9615 13.7906C18.2296 14.0817 17.1855 14.2833 16.1999 14.332C16.0629 12.5594 15.1787 10.8933 13.667 9.65625H19.7812C20.0402 9.65625 20.25 9.44641 20.25 9.1875C20.25 8.92859 20.0402 8.71875 19.7812 8.71875H12.2269C11.1628 8.17712 9.96808 7.86127 8.73834 7.79498C9.00769 4.64667 12.0496 2.15625 15.75 2.15625C19.7139 2.15625 23.0625 4.94678 23.0625 8.25C23.0625 9.68243 22.4767 11.0746 21.4133 12.1699Z" fill="#000"/>
<path d="M12 13.4062H6.09375C5.83484 13.4062 5.625 13.6161 5.625 13.875C5.625 14.1339 5.83484 14.3438 6.09375 14.3438H12C12.2589 14.3438 12.4688 14.1339 12.4688 13.875C12.4688 13.6161 12.2589 13.4062 12 13.4062Z" fill="#000"/>
<path d="M12 16.2188H4.21875C3.95984 16.2188 3.75 16.4286 3.75 16.6875C3.75 16.9464 3.95984 17.1562 4.21875 17.1562H12C12.2589 17.1562 12.4688 16.9464 12.4688 16.6875C12.4688 16.4286 12.2589 16.2188 12 16.2188Z" fill="#000"/>
<path d="M19.7812 5.90625H13.875C13.6161 5.90625 13.4062 6.11609 13.4062 6.375C13.4062 6.63391 13.6161 6.84375 13.875 6.84375H19.7812C20.0402 6.84375 20.25 6.63391 20.25 6.375C20.25 6.11609 20.0402 5.90625 19.7812 5.90625Z" fill="#000"/>
</svg>
