<svg width="26" height="29" viewBox="0 0 26 29" fill="none" xmlns="http://www.w3.org/2000/svg">
<g filter="url(#filter0_d)">
<path d="M20 3H15.82C15.4 1.84 14.3 1 13 1C11.7 1 10.6 1.84 10.18 3H6C4.9 3 4 3.9 4 5V19C4 20.1 4.9 21 6 21H20C21.1 21 22 20.1 22 19V5C22 3.9 21.1 3 20 3ZM13 3C13.55 3 14 3.45 14 4C14 4.55 13.55 5 13 5C12.45 5 12 4.55 12 4C12 3.45 12.45 3 13 3ZM15 17H8V15H15V17ZM18 13H8V11H18V13ZM18 9H8V7H18V9Z" fill="#000"/>
</g>
<defs>
<filter id="filter0_d" x="-3" y="0" width="32" height="32" filterUnits="userSpaceOnUse" color-interpolation-filters="sRGB">
<feFlood flood-opacity="0" result="BackgroundImageFix"/>
<feColorMatrix in="SourceAlpha" type="matrix" values="0 0 0 0 0 0 0 0 0 0 0 0 0 0 0 0 0 0 127 0"/>
<feOffset dy="4"/>
<feGaussianBlur stdDeviation="2"/>
<feColorMatrix type="matrix" values="0 0 0 0 0 0 0 0 0 0 0 0 0 0 0 0 0 0 0.25 0"/>
<feBlend mode="normal" in2="BackgroundImageFix" result="effect1_dropShadow"/>
<feBlend mode="normal" in="SourceGraphic" in2="effect1_dropShadow" result="shape"/>
</filter>
</defs>
</svg>
