<svg width="24" height="24" viewBox="0 0 24 24" fill="none" xmlns="http://www.w3.org/2000/svg">
<path d="M12 0C5.37266 0 0 5.37266 0 12C0 18.6273 5.37266 24 12 24C18.6273 24 24 18.6273 24 12C23.9926 5.37578 18.6242 0.0074219 12 0ZM12.4283 3.45957L16.6 1.79199C17.0734 2.00625 17.5314 2.25313 17.9707 2.53086L17.9816 2.5377C18.4133 2.81113 18.8258 3.11367 19.2164 3.44316L19.25 3.47246C19.4252 3.62168 19.5955 3.77617 19.7611 3.93555C19.782 3.95605 19.8039 3.97559 19.8248 3.99648C19.9984 4.16602 20.1666 4.34082 20.3293 4.5207C20.3428 4.53594 20.3557 4.55195 20.3691 4.56719C20.5119 4.72715 20.6492 4.89277 20.7824 5.06113C20.8145 5.10117 20.8465 5.14121 20.8775 5.18125C21.0221 5.36836 21.1619 5.55879 21.2939 5.75527L20.4623 9.29043L16.3707 10.6545L12.4293 7.50078L12.4283 3.45957ZM3.12207 5.18359C3.15313 5.14355 3.18477 5.10352 3.2168 5.06367C3.34844 4.89668 3.48457 4.73379 3.6252 4.5748C3.64043 4.55801 3.65449 4.54082 3.66953 4.52402C3.83125 4.34375 3.99863 4.16914 4.17207 4C4.19199 3.98047 4.21191 3.95996 4.23281 3.94199C4.39707 3.78359 4.56602 3.63008 4.73965 3.48164L4.77969 3.44805C5.1668 3.1209 5.57539 2.82031 6.00273 2.54805L6.01836 2.53809C6.45508 2.26094 6.91016 2.01445 7.38086 1.8L11.5717 3.45957V7.49961L7.63008 10.6527L3.53848 9.29121L2.70684 5.75605C2.84004 5.55996 2.97832 5.36992 3.12207 5.18359ZM2.64004 18.1381C2.52246 17.9588 2.40996 17.7762 2.30273 17.59L2.27676 17.5451C2.17012 17.36 2.06914 17.1717 1.97402 16.9805L1.9707 16.9744C1.77031 16.5721 1.59434 16.158 1.44395 15.7344V15.7305C1.37285 15.5305 1.30801 15.3256 1.24805 15.1195L1.22637 15.0436C1.17148 14.85 1.12168 14.6543 1.07715 14.4564C1.07324 14.4371 1.06836 14.4188 1.06445 14.3996C0.966211 13.9527 0.895703 13.5004 0.853125 13.0447L3.29512 10.1145L7.3584 11.4688L8.5377 16.1855L6.6 18.7637L2.64004 18.1381ZM14.6637 22.8771C14.4637 22.9268 14.2584 22.9695 14.0531 23.008C14.0244 23.0137 13.9951 23.0184 13.9664 23.0236C13.7916 23.0549 13.6148 23.0816 13.4377 23.1035C13.3904 23.1096 13.3436 23.116 13.2965 23.1217C13.132 23.1408 12.966 23.1553 12.7996 23.1672C12.7473 23.1707 12.6955 23.176 12.6432 23.1793C12.4305 23.1924 12.216 23.2 12 23.2C11.8021 23.2 11.6055 23.1947 11.41 23.1844C11.3863 23.1844 11.3637 23.1805 11.34 23.1787C11.166 23.1688 10.9928 23.1557 10.8199 23.1389L10.8 23.1352C10.4213 23.0941 10.0447 23.034 9.67207 22.9553L7.30605 19.2508L9.21328 16.7076H14.7867L16.7252 19.2676L14.6637 22.8771ZM22.9385 14.4C22.9344 14.4191 22.9297 14.4377 22.9256 14.4568C22.8809 14.6545 22.8311 14.8502 22.7764 15.0439L22.7549 15.1199C22.6947 15.326 22.6301 15.5301 22.5588 15.7309V15.7348C22.4084 16.1584 22.2326 16.5725 22.032 16.9748L22.0287 16.9809C21.933 17.1723 21.8322 17.3605 21.726 17.5455L21.7 17.5904C21.5934 17.7771 21.4811 17.9594 21.3633 18.1377L17.4168 18.76L15.4656 16.184L16.6443 11.4684L20.7076 10.1141L23.1496 13.0443C23.1072 13.5002 23.0367 13.9529 22.9385 14.4V14.4Z" fill="#000"/>
</svg>
