<svg width="24" height="24" viewBox="0 0 24 24" fill="none" xmlns="http://www.w3.org/2000/svg">
<g clip-path="url(#clip0)">
<path d="M19.2656 12.3217V10.0781C19.2656 6.80522 17.0901 4.0312 14.1094 3.12516V2.10938C14.1094 0.946266 13.1631 0 12 0C10.8369 0 9.89062 0.946266 9.89062 2.10938V3.12516C6.90984 4.0312 4.73437 6.80517 4.73437 10.0781V12.3217C4.73437 15.1966 3.63852 17.9227 1.64873 19.9977C1.45373 20.2011 1.39893 20.5011 1.50946 20.7602C1.61999 21.0194 1.87452 21.1875 2.15624 21.1875H8.5551C8.88173 22.7903 10.3022 24 12 24C13.6978 24 15.1182 22.7903 15.4449 21.1875H21.8437C22.1255 21.1875 22.3799 21.0194 22.4905 20.7602C22.601 20.5011 22.5462 20.2011 22.3513 19.9977C20.3615 17.9227 19.2656 15.1965 19.2656 12.3217V12.3217ZM11.2969 2.10938C11.2969 1.72167 11.6123 1.40625 12 1.40625C12.3877 1.40625 12.7031 1.72167 12.7031 2.10938V2.84663C12.4717 2.82431 12.2372 2.8125 12 2.8125C11.7628 2.8125 11.5283 2.82431 11.2969 2.84663V2.10938ZM12 22.5938C11.0834 22.5938 10.3018 22.0059 10.0116 21.1875H13.9884C13.6982 22.0059 12.9166 22.5938 12 22.5938V22.5938ZM3.67171 19.7812C5.27301 17.6348 6.14062 15.0371 6.14062 12.3217V10.0781C6.14062 6.84727 8.76913 4.21875 12 4.21875C15.2308 4.21875 17.8594 6.84727 17.8594 10.0781V12.3217C17.8594 15.0371 18.727 17.6348 20.3283 19.7812H3.67171Z" fill="#000"/>
<path d="M21.1406 10.0782C21.1406 10.4665 21.4554 10.7813 21.8437 10.7813C22.2321 10.7813 22.5469 10.4665 22.5469 10.0782C22.5469 7.26098 21.4498 4.6124 19.4578 2.62036C19.1832 2.34581 18.738 2.34576 18.4634 2.62036C18.1888 2.89495 18.1888 3.34012 18.4634 3.61472C20.1898 5.34117 21.1406 7.63659 21.1406 10.0782V10.0782Z" fill="#000"/>
<path d="M2.15625 10.7813C2.54456 10.7813 2.85938 10.4665 2.85938 10.0781C2.85938 7.63661 3.81019 5.34119 5.53659 3.61473C5.81119 3.34014 5.81119 2.89497 5.53659 2.62037C5.26205 2.34578 4.81683 2.34578 4.54223 2.62037C2.55019 4.61242 1.45312 7.26095 1.45312 10.0781C1.45312 10.4665 1.76794 10.7813 2.15625 10.7813V10.7813Z" fill="#000"/>
</g>
<defs>
<clipPath id="clip0">
<rect width="24" height="24" fill="white"/>
</clipPath>
</defs>
</svg>
