<svg width="24" height="24" viewBox="0 0 24 24" fill="none" xmlns="http://www.w3.org/2000/svg">
<path d="M22.2304 3.61426H1.76961C0.792803 3.61555 0.00129083 4.40706 0 5.38387V18.616C0.00129083 19.5928 0.792803 20.3843 1.76961 20.3856H22.2304C23.2072 20.3843 23.9987 19.5928 24 18.616V5.38387C23.9987 4.40706 23.2072 3.61555 22.2304 3.61426ZM12.2981 8.75645C14.09 8.91645 15.413 10.4988 15.253 12.2908C15.1128 13.8611 13.8683 15.1056 12.2981 15.2458V8.75645ZM0.593781 7.30602H3.60962C3.99845 7.30602 4.31371 7.62128 4.31371 8.01011V15.9898C4.31371 16.3786 3.99845 16.6939 3.60962 16.6939H0.593781V7.30602V7.30602ZM11.7019 15.2434C9.90997 15.0834 8.58699 13.5011 8.747 11.709C8.88723 10.1388 10.1317 8.89427 11.7019 8.7541V15.2434ZM11.7019 8.16032C9.5814 8.32625 7.99679 10.1798 8.16272 12.3004C8.31058 14.1904 9.81193 15.6917 11.7019 15.8396V19.7918H1.76961C1.12149 19.7918 0.596127 19.2665 0.596127 18.6184V17.2876H3.60962C4.32644 17.2876 4.90749 16.7065 4.90749 15.9898V14.3469C6.20366 14.1726 7.11316 12.9806 6.93884 11.6843C6.79668 10.6269 5.96491 9.79515 4.90749 9.65298V8.01011C4.9062 7.29517 4.32691 6.71588 3.61197 6.71459H0.593781V5.38387C0.593781 4.73575 1.11915 4.21039 1.76726 4.21039H11.7019V8.16032ZM4.89576 13.7484V13.7461V10.2538C5.86077 10.4164 6.51123 11.3306 6.34858 12.2956C6.22314 13.0399 5.64004 13.623 4.89576 13.7484ZM23.4062 16.6939H20.3904C20.0015 16.6939 19.6863 16.3786 19.6863 15.9898V8.01011C19.6863 7.62128 20.0015 7.30602 20.3904 7.30602H23.4062V16.6939ZM20.3904 6.71224C19.6736 6.71224 19.0925 7.29329 19.0925 8.01011V9.65298C17.7963 9.8273 16.8868 11.0193 17.0612 12.3156C17.2033 13.373 18.0351 14.2047 19.0925 14.3469V15.9898C19.0938 16.7047 19.6731 17.284 20.388 17.2853H23.4062V18.6137C23.4062 19.2618 22.8809 19.7872 22.2327 19.7872H12.2981V15.8396C14.4187 15.6736 16.0032 13.8201 15.8373 11.6995C15.6894 9.80952 14.1881 8.30818 12.2981 8.16032V4.20804H22.2304C22.8785 4.20804 23.4039 4.73341 23.4039 5.38152L23.4062 6.71224H20.3904ZM19.0925 10.2515V10.2538V13.7461C18.1275 13.5834 17.477 12.6693 17.6397 11.7043C17.7651 10.96 18.3482 10.3769 19.0925 10.2515Z" fill="#000"/>
</svg>
